<?xml version="1.0" encoding="UTF-8"?>
<svg width="52px" height="52px" viewBox="0 0 52 52" version="1.1" xmlns="http://www.w3.org/2000/svg" xmlns:xlink="http://www.w3.org/1999/xlink">
    <!-- Generator: Sketch 52.6 (67491) - http://www.bohemiancoding.com/sketch -->
    <title>error</title>
    <desc>Created with Sketch.</desc>
    <g id="Page-1" stroke="none" stroke-width="1" fill="none" fill-rule="evenodd">
        <g id="error" fill="#EEEEEE">
            <path d="M26,0 C11.7,0 0,11.7 0,26 C0,40.3 11.7,52 26,52 C40.3,52 52,40.3 52,26 C52,11.7 40.3,0 26,0 Z M26,50 C12.8,50 2,39.2 2,26 C2,12.8 12.8,2 26,2 C39.2,2 50,12.8 50,26 C50,39.2 39.2,50 26,50 Z" id="Shape" fill-rule="nonzero"></path>
            <path d="M35.7,16.3 C35.3,15.9 34.7,15.9 34.3,16.3 L26,24.6 L17.7,16.3 C17.3,15.9 16.7,15.9 16.3,16.3 C15.9,16.7 15.9,17.3 16.3,17.7 L24.6,26 L16.3,34.3 C15.9,34.7 15.9,35.3 16.3,35.7 C16.5,35.9 16.7,36 17,36 C17.3,36 17.5,35.9 17.7,35.7 L26,27.4 L34.3,35.7 C34.5,35.9 34.7,36 35,36 C35.3,36 35.5,35.9 35.7,35.7 C36.1,35.3 36.1,34.7 35.7,34.3 L27.4,26 L35.7,17.7 C36.1,17.3 36.1,16.7 35.7,16.3 Z" id="Path"></path>
        </g>
    </g>
</svg>