<?xml version="1.0" encoding="UTF-8"?>
<svg width="55px" height="55px" viewBox="0 0 55 55" version="1.1" xmlns="http://www.w3.org/2000/svg" xmlns:xlink="http://www.w3.org/1999/xlink">
    <!-- Generator: Sketch 52.6 (67491) - http://www.bohemiancoding.com/sketch -->
    <title>network</title>
    <desc>Created with Sketch.</desc>
    <g id="Page-1" stroke="none" stroke-width="1" fill="none" fill-rule="evenodd">
        <g id="network" fill="#EEEEEE" fill-rule="nonzero">
            <path d="M49,0 C45.691,0 43,2.691 43,6 C43,7.035 43.263,8.009 43.726,8.86 L33.897,18.689 C32.542,17.634 30.846,17 29,17 C27.154,17 25.458,17.634 24.102,18.688 L16.433,11.019 C16.785,10.424 17,9.74 17,9 C17,6.794 15.206,5 13,5 C10.794,5 9,6.794 9,9 C9,11.206 10.794,13 13,13 C13.74,13 14.424,12.785 15.019,12.433 L22.688,20.102 C21.634,21.458 21,23.154 21,25 C21,26.846 21.634,28.542 22.688,29.897 L10.024,42.562 C8.958,41.595 7.549,41 6,41 C2.691,41 0,43.691 0,47 C0,50.309 2.691,53 6,53 C9.309,53 12,50.309 12,47 C12,45.965 11.737,44.991 11.274,44.14 L24.103,31.311 C25.209,32.171 26.543,32.747 28.001,32.93 L28.001,43.09 C25.168,43.568 23.001,46.032 23.001,49 C23.001,52.309 25.692,55 29.001,55 C32.31,55 35.001,52.309 35.001,49 C35.001,46.033 32.834,43.569 30.001,43.09 L30.001,32.93 C31.459,32.747 32.793,32.171 33.899,31.311 L41.568,38.98 C41.215,39.576 41,40.26 41,41 C41,43.206 42.794,45 45,45 C47.206,45 49,43.206 49,41 C49,38.794 47.206,37 45,37 C44.26,37 43.576,37.215 42.981,37.567 L35.312,29.898 C36.366,28.542 37,26.846 37,25 C37,23.154 36.366,21.458 35.312,20.103 L44.977,10.438 C46.042,11.405 47.451,12 49,12 C52.309,12 55,9.309 55,6 C55,2.691 52.309,0 49,0 Z M11,9 C11,7.897 11.897,7 13,7 C14.103,7 15,7.897 15,9 C15,10.103 14.103,11 13,11 C11.897,11 11,10.103 11,9 Z M6,51 C3.794,51 2,49.206 2,47 C2,44.794 3.794,43 6,43 C8.206,43 10,44.794 10,47 C10,49.206 8.206,51 6,51 Z M33,49 C33,51.206 31.206,53 29,53 C26.794,53 25,51.206 25,49 C25,46.794 26.794,45 29,45 C31.206,45 33,46.794 33,49 Z M29,31 C25.691,31 23,28.309 23,25 C23,21.691 25.691,19 29,19 C32.309,19 35,21.691 35,25 C35,28.309 32.309,31 29,31 Z M47,41 C47,42.103 46.103,43 45,43 C43.897,43 43,42.103 43,41 C43,39.897 43.897,39 45,39 C46.103,39 47,39.897 47,41 Z M49,10 C46.794,10 45,8.206 45,6 C45,3.794 46.794,2 49,2 C51.206,2 53,3.794 53,6 C53,8.206 51.206,10 49,10 Z" id="Shape"></path>
        </g>
    </g>
</svg>