<?xml version="1.0" encoding="UTF-8"?>
<svg width="60px" height="60px" viewBox="0 0 60 60" version="1.1" xmlns="http://www.w3.org/2000/svg" xmlns:xlink="http://www.w3.org/1999/xlink">
    <!-- Generator: Sketch 52.6 (67491) - http://www.bohemiancoding.com/sketch -->
    <title>time</title>
    <desc>Created with Sketch.</desc>
    <g id="Page-1" stroke="none" stroke-width="1" fill="none" fill-rule="evenodd">
        <g id="time" fill="#EEEEEE">
            <path d="M30,0 C13.458,0 0,13.458 0,30 C0,46.542 13.458,60 30,60 C46.542,60 60,46.542 60,30 C60,13.458 46.542,0 30,0 Z M30,58 C14.561,58 2,45.439 2,30 C2,14.561 14.561,2 30,2 C45.439,2 58,14.561 58,30 C58,45.439 45.439,58 30,58 Z" id="Shape" fill-rule="nonzero"></path>
            <path d="M30,6 C29.448,6 29,6.447 29,7 L29,30 L14,30 C13.448,30 13,30.447 13,31 C13,31.553 13.448,32 14,32 L30,32 C30.552,32 31,31.553 31,31 L31,7 C31,6.447 30.552,6 30,6 Z" id="Path"></path>
        </g>
    </g>
</svg>