<?xml version="1.0" encoding="iso-8859-1"?>
<!--Generator: Adobe Illustrator 19.0.0, SVG Export Plug-In . SVG Version: 6.00 Build 0)-->
<svg xmlns="http://www.w3.org/2000/svg" xmlns:xlink="http://www.w3.org/1999/xlink" id="Capa_1" x="0px" y="0px" style="enable-background:new 0 0 52 52" version="1.1" viewBox="0 0 52 52" xml:space="preserve">
    <g>
        <path d="M 26 0 C 11.7 0 0 11.7 0 26 s 11.7 26 26 26 s 26 -11.7 26 -26 S 40.3 0 26 0 z M 26 50 C 12.8 50 2 39.2 2 26 S 12.8 2 26 2 s 24 10.8 24 24 S 39.2 50 26 50 z"/>
        <path d="M 35.7 16.3 c -0.4 -0.4 -1 -0.4 -1.4 0 L 26 24.6 l -8.3 -8.3 c -0.4 -0.4 -1 -0.4 -1.4 0 s -0.4 1 0 1.4 L 24.6 26 l -8.3 8.3 c -0.4 0.4 -0.4 1 0 1.4 C 16.5 35.9 16.7 36 17 36 s 0.5 -0.1 0.7 -0.3 L 26 27.4 l 8.3 8.3 C 34.5 35.9 34.7 36 35 36 s 0.5 -0.1 0.7 -0.3 c 0.4 -0.4 0.4 -1 0 -1.4 L 27.4 26 l 8.3 -8.3 C 36.1 17.3 36.1 16.7 35.7 16.3 z"/>
    </g>
    <g/>
    <g/>
    <g/>
    <g/>
    <g/>
    <g/>
    <g/>
    <g/>
    <g/>
    <g/>
    <g/>
    <g/>
    <g/>
    <g/>
    <g/>
</svg>
